<?xml version="1.0" encoding="utf-8"?>
<!-- Generator: Adobe Illustrator 27.2.0, SVG Export Plug-In . SVG Version: 6.00 Build 0)  -->
<svg version="1.1" id="Capa_1" xmlns="http://www.w3.org/2000/svg" xmlns:xlink="http://www.w3.org/1999/xlink" x="0px" y="0px"
	 viewBox="0 0 595.28 512.02" style="enable-background:new 0 0 595.28 512.02;" xml:space="preserve">
<style type="text/css">
	.st0{fill-rule:evenodd;clip-rule:evenodd;fill:#EC6323;}
</style>
<path class="st0" d="M393.01,269.06c-38.97-46.32-79.04-40.89-119.72-6.21l-0.06,93.15c0,0.64-0.09,1.25-0.27,1.83
	c40.05,0.03,80.1,0.06,120.15,0.09c-0.11-0.44-0.16-0.91-0.16-1.38L393.01,269.06z M159.25,362.23l36.75-2.7l0.16-99.3
	c-3.13-14.32-33.43-11.23-36.56-0.6L159.25,362.23z M464.39,422.46l-287.79-0.19c-11.62-0.01-10.21,0.37-20.94-2.02l-47.36-10.54
	c-4.77-1.53-5.34-4.66-5.35-8.06l0.03-33.27c-0.12-4.93,3.96-10.54,12.16-10.48l0.1-133.47V203.9l-6.02,0
	c-5.22-0.35-7.3-2.79-4.44-8.54l13.15-25.09l13.16-25.11c2.89-4.82,5.84-5.59,8.91,0.02l13.11,25.11l13.12,25.13
	c2.33,5.16,1.46,8.38-4.48,8.51l-5.1,0v12.78v5.3c9.02-6.95,29.7-10.5,45.31-8.53l0.01-12.04v-47.02l-7.32-0.01
	c-6.56-0.44-9.19-3.51-5.58-10.74l16.54-31.57l16.55-31.6c3.63-6.05,7.35-7.03,11.22,0.03l16.49,31.59l16.5,31.62
	c2.94,6.5,1.84,10.54-5.63,10.71l-6.65,0v15.83l0,0.25l0,6.46v24.45h-0.02l-0.01,6.26c61.55-37.23,103.42-31.53,158.82,13.01l0-7.29
	v-37.2l-6.83,0c-6.06-0.41-8.48-3.24-5.15-9.92l15.27-29.15l15.29-29.17c3.35-5.6,6.78-6.49,10.35,0.02l15.23,29.18l15.24,29.19
	c2.71,6,1.7,9.73-5.2,9.89l-6.08,0v14.62l0,0.23l0,5.9v16.42h-0.01l-0.12,142.84c0,0.58-0.08,1.14-0.24,1.68l4.67,0.01
	c5.96,0.01,10.83,4.49,10.82,9.97l-0.02,43.76C476.13,417.61,470.84,422.46,464.39,422.46z"/>
</svg>
